<svg width="57" height="46" viewBox="0 0 57 46" fill="none" xmlns="http://www.w3.org/2000/svg">
<path d="M8.5 11.9248V5.83317C8.5 2.7165 11.05 0.166504 14.1667 0.166504H42.5C45.6167 0.166504 48.1667 2.7165 48.1667 5.83317V11.9532C44.88 13.1148 42.5 16.2315 42.5 19.9148V25.6665H14.1667V19.8865C14.1667 16.2315 11.7867 13.0865 8.5 11.9248ZM51 14.3332C47.8833 14.3332 45.3333 16.8832 45.3333 19.9998V28.4998H11.3333V19.9998C11.3333 18.4969 10.7363 17.0556 9.67361 15.9929C8.6109 14.9302 7.16956 14.3332 5.66667 14.3332C4.16377 14.3332 2.72243 14.9302 1.65973 15.9929C0.597022 17.0556 0 18.4969 0 19.9998V34.1665C0 37.2832 2.55 39.8332 5.66667 39.8332V45.4998H11.3333V39.8332H45.3333V45.4998H51V39.8332C54.1167 39.8332 56.6667 37.2832 56.6667 34.1665V19.9998C56.6667 16.8832 54.1167 14.3332 51 14.3332Z" fill="#FFA828"/>
</svg>
