<svg width="57" height="46" viewBox="0 0 57 46" fill="none" xmlns="http://www.w3.org/2000/svg">
<path d="M8.5 11.7583V5.66667C8.5 2.55 11.05 0 14.1667 0H42.5C45.6167 0 48.1667 2.55 48.1667 5.66667V11.7867C44.88 12.9483 42.5 16.065 42.5 19.7483V25.5H14.1667V19.72C14.1667 16.065 11.7867 12.92 8.5 11.7583ZM51 14.1667C47.8833 14.1667 45.3333 16.7167 45.3333 19.8333V28.3333H11.3333V19.8333C11.3333 18.3304 10.7363 16.8891 9.67361 15.8264C8.6109 14.7637 7.16956 14.1667 5.66667 14.1667C4.16377 14.1667 2.72243 14.7637 1.65973 15.8264C0.597022 16.8891 0 18.3304 0 19.8333V34C0 37.1167 2.55 39.6667 5.66667 39.6667V45.3333H11.3333V39.6667H45.3333V45.3333H51V39.6667C54.1167 39.6667 56.6667 37.1167 56.6667 34V19.8333C56.6667 16.7167 54.1167 14.1667 51 14.1667Z" fill="#5DC13A"/>
</svg>
